<svg width="48" height="48" viewBox="0 0 48 48" fill="none" xmlns="http://www.w3.org/2000/svg">
<path fillRule="evenodd" clipRule="evenodd" d="M0 18C0 8.05887 8.05888 0 18 0H30C39.9411 0 48 8.05888 48 18V30C48 39.9411 39.9411 48 30 48H18C8.05887 48 0 39.9411 0 30V18ZM18 12C14.6863 12 12 14.6863 12 18V30C12 33.3137 14.6863 36 18 36H30C33.3137 36 36 33.3137 36 30V18C36 14.6863 33.3137 12 30 12H18Z" fill="url(#paint0_angular_107_812)"/>
<path d="M17 6C17 2.68629 19.6863 0 23 0H24V12H23C19.6863 12 17 9.31371 17 6Z" fill="#1C1D1E"/>
<g filter="url(#filter0_b_107_812)">
<path fillRule="evenodd" clipRule="evenodd" d="M5 18C5 10.8203 10.8203 5 18 5H30C37.1797 5 43 10.8203 43 18V30C43 37.1797 37.1797 43 30 43H18C10.8203 43 5 37.1797 5 30V18ZM18 7C11.9249 7 7 11.9249 7 18V30C7 36.0751 11.9249 41 18 41H30C36.0751 41 41 36.0751 41 30V18C41 11.9249 36.0751 7 30 7H18Z" fill="url(#paint1_angular_107_812)" fillOpacity="0.7"/>
</g>
<path d="M17 6C17 2.68629 19.6863 0 23 0H35V12H23C19.6863 12 17 9.31371 17 6Z" fill="url(#paint2_linear_107_812)"/>
<defs>
<filter id="filter0_b_107_812" x="3" y="3" width="42" height="42" filterUnits="userSpaceOnUse" colorInterpolationFilters="sRGB">
<feFlood floodOpacity="0" result="BackgroundImageFix"/>
<feGaussianBlur in="BackgroundImageFix" stdDeviation="1"/>
<feComposite in2="SourceAlpha" operator="in" result="effect1_backgroundBlur_107_812"/>
<feBlend mode="normal" in="SourceGraphic" in2="effect1_backgroundBlur_107_812" result="shape"/>
</filter>
<radialGradient id="paint0_angular_107_812" cx="0" cy="0" r="1" gradientUnits="userSpaceOnUse" gradientTransform="translate(24 24) rotate(-90) scale(18)">
<stop stop-color="#1C1D1E"/>
<stop offset="1" stop-color="#FF3D0D"/>
</radialGradient>
<radialGradient id="paint1_angular_107_812" cx="0" cy="0" r="1" gradientUnits="userSpaceOnUse" gradientTransform="translate(24 24) rotate(-107.969) scale(19.4487)">
<stop stop-color="#7B7B7B"/>
<stop offset="1" stop-color="#E1E1E1"/>
</radialGradient>
<linearGradient id="paint2_linear_107_812" x1="32.5" y1="6" x2="17" y2="6" gradientUnits="userSpaceOnUse">
<stop stop-color="#1C1D1E" stop-opacity="0"/>
<stop offset="1" stop-color="#1C1D1E"/>
</linearGradient>
</defs>
</svg>
