<svg width="132" height="25" viewBox="0 0 132 25" fill="none" xmlns="http://www.w3.org/2000/svg">
<path d="M126.561 5.02393C129.249 5.02393 131.069 7.17993 130.593 9.83993L129.865 13.8439C129.389 16.4479 126.841 18.5759 124.181 18.5759H116.117C116.089 18.5759 116.061 18.6039 116.061 18.6319L115.473 21.9079C115.361 22.5239 114.773 23.0279 114.129 23.0279H110.797C110.153 23.0279 109.705 22.4679 109.817 21.8239L112.645 6.14392C112.757 5.52793 113.373 5.02393 113.989 5.02393H126.561ZM124.797 10.4559C124.825 10.2599 124.769 10.0919 124.685 9.97993C124.573 9.83993 124.405 9.78393 124.237 9.78393H117.713C117.685 9.78393 117.657 9.81193 117.657 9.83993L116.929 13.8159H123.425C123.845 13.8159 124.237 13.5079 124.321 13.0879L124.797 10.4559Z" fill="#FF3D0D"/>
<path d="M89.0996 5.02393C89.7436 5.02393 90.1916 5.55593 90.0796 6.22793L89.6316 8.74793C89.5196 9.39193 88.9316 9.86793 88.2876 9.86793H83.4156C83.3876 9.86793 83.3596 9.89593 83.3596 9.92393L81.2036 21.9079C81.0636 22.5239 80.4756 22.9999 79.8596 22.9999H76.5276C76.1916 22.9999 75.9116 22.8879 75.7436 22.6639C75.5476 22.4399 75.4916 22.1319 75.5476 21.8239L77.7036 9.86793H72.8316C72.5236 9.86793 72.2436 9.75593 72.0476 9.53193C71.8516 9.30793 71.7956 8.99993 71.8516 8.69193L72.2996 6.14392C72.4116 5.52793 72.9996 5.02393 73.6436 5.02393H89.0996Z" fill="#FF3D0D"/>
<path d="M63.4663 22.9997H50.6423C50.0263 22.9997 49.6063 22.5237 49.7183 21.9357L50.2503 18.9677C50.3623 18.3797 50.9503 17.8757 51.5663 17.8757H63.8583C64.2223 17.8757 64.5863 17.5957 64.6423 17.2317L64.8103 16.3077C64.8663 15.9437 64.6143 15.6357 64.2503 15.6357H55.4303C52.5463 15.6357 50.6423 13.3677 51.1463 10.5397L51.5103 8.55173C52.0143 5.72373 54.7583 3.42773 57.6143 3.42773H70.6903C71.3063 3.42773 71.7263 3.90373 71.6143 4.51974L71.1103 7.31974C70.9983 7.93573 70.4103 8.41174 69.7943 8.41174H57.8383C57.4743 8.41174 57.1103 8.71973 57.0543 9.08374L56.8303 10.3157C56.7743 10.6797 56.9983 10.9597 57.3623 10.9597H66.2103C69.0943 10.9597 70.9983 13.2557 70.4943 16.0837L70.1583 17.9037C69.6543 20.7317 66.9103 23.0277 64.0543 23.0277H63.4663V22.9997Z" fill="#FF3D0D"/>
<path d="M49.751 5.02393C50.395 5.02393 50.843 5.55593 50.731 6.22793L50.283 8.74793C50.171 9.39193 49.583 9.86793 48.939 9.86793H44.067C44.039 9.86793 44.011 9.89593 44.011 9.92393L41.855 21.9079C41.715 22.5239 41.127 22.9999 40.511 22.9999H37.179C36.843 22.9999 36.563 22.8879 36.395 22.6639C36.199 22.4399 36.143 22.1319 36.199 21.8239L38.355 9.86793H33.483C33.175 9.86793 32.895 9.75593 32.699 9.53193C32.503 9.30793 32.447 8.99993 32.503 8.69193L32.951 6.14392C33.063 5.52793 33.651 5.02393 34.295 5.02393H49.751Z" fill="#FF3D0D"/>
<path d="M30.7244 5.02393C31.3964 5.02393 31.8164 5.58393 31.7044 6.22793L28.8764 21.9079C28.7644 22.5239 28.1764 22.9999 27.5324 22.9999H24.2004C23.8924 22.9999 23.6124 22.8879 23.4164 22.6639C23.2484 22.4399 23.1644 22.1319 23.2204 21.8239L26.0484 6.14392C26.1604 5.52793 26.7484 5.02393 27.3924 5.02393H30.7244Z" fill="#FF3D0D"/>
<path d="M23.6802 8.5239L22.8682 12.9759C22.3642 15.8039 19.6202 18.0719 16.7362 18.0719L7.8042 18.0999C7.6642 18.0999 7.5522 18.1839 7.5242 18.3239L6.8802 21.9359C6.7682 22.5239 6.1802 22.9999 5.5922 22.9999H1.8962C1.2802 22.9999 0.860199 22.5239 0.972199 21.9359L4.1362 4.4919C4.2482 3.9039 4.8082 3.3999 5.4242 3.3999H19.3962C22.2802 3.3999 24.1842 5.6959 23.6802 8.5239ZM17.6042 9.2799C17.7162 8.7479 17.3522 8.2999 16.7922 8.2999H9.5682C9.4562 8.2999 9.3162 8.4119 9.3162 8.5239L8.5042 12.9759C8.4762 13.0879 8.5602 13.1719 8.7002 13.1719H15.9242C16.4562 13.1719 16.9882 12.7519 17.0722 12.2199L17.6042 9.2799Z" fill="#FF3D0D"/>
<path d="M91.6772 19.3479L93.1086 10.0438C93.3338 8.58033 94.593 7.5 96.0738 7.5H106.789C107.417 7.5 107.89 8.07212 107.771 8.68885L105.968 18.0665C105.696 19.4791 104.46 20.5 103.022 20.5H92.6656C92.0527 20.5 91.584 19.9537 91.6772 19.3479Z" stroke="#FF3D0D" stroke-width="5.5"/>
</svg>
